<?xml version="1.0" encoding="utf-8"?>
<!-- Generator: Adobe Illustrator 24.0.0, SVG Export Plug-In . SVG Version: 6.00 Build 0)  -->
<svg version="1.1" id="Layer_1" xmlns="http://www.w3.org/2000/svg" xmlns:xlink="http://www.w3.org/1999/xlink" x="0px" y="0px"
	 viewBox="0 0 300 160" style="enable-background:new 0 0 300 160;" xml:space="preserve">
<style type="text/css">
	.st0{fill:#F1F2F2;}
	.st1{fill:#212124;}
	.st2{fill:#FEE700;}
	.st3{fill:#EC2227;}
	.st4{fill:#8D8E8E;}
	.st5{fill:#CC333E;}
	.st6{clip-path:url(#SVGID_2_);}
	.st7{fill:#306FB7;}
	.st8{fill:#FAFBFE;}
	.st9{fill:#316FB7;}
	.st10{fill:none;}
</style>
<path class="st0" d="M288.91,160H11.09C4.96,160,0,155.04,0,148.91V11.09C0,4.96,4.96,0,11.09,0h277.83C295.04,0,300,4.96,300,11.09
	v137.83C300,155.04,295.04,160,288.91,160z"/>
<g>
	<defs>
		<path id="SVGID_1_" d="M288.91,160H11.09C4.96,160,0,155.04,0,148.91V11.09C0,4.96,4.96,0,11.09,0h277.83
			C295.04,0,300,4.96,300,11.09v137.83C300,155.04,295.04,160,288.91,160z"/>
	</defs>
	<clipPath id="SVGID_2_">
		<use xlink:href="#SVGID_1_"  style="overflow:visible;"/>
	</clipPath>
	<g class="st6">
		<path class="st7" d="M300.13,134.61c0,31.24,0,62.5,0.03,93.74c0,0.9-0.15,1.17-1.13,1.17c-99.3-0.03-198.61-0.03-297.91,0
			c-0.99,0-1.22-0.17-1.22-1.2c0.02-50.41,0.02-100.81,0.03-151.22l1.31,0.01l2.17,0.02c3.22,0.02,6.44,0,9.66,0.02
			c0.74,0.01,1.1-0.22,1.36-0.91c0.69-1.87,1.49-3.69,2.19-5.56c0.26-0.69,0.6-0.98,1.36-0.96c2,0.05,4,0.05,6,0
			c0.77-0.02,1.1,0.3,1.35,0.97c0.66,1.74,1.45,3.44,2.06,5.21c0.34,1.01,0.87,1.26,1.9,1.26c36.62-0.03,73.23-0.03,109.86,0.01
			c1.26,0,1.63-0.31,1.54-1.56c-0.11-1.83-0.03-3.67-0.03-5.83c1.96,2.39,3.68,4.47,5.36,6.58c0.41,0.53,0.83,0.79,1.55,0.79
			c9.46-0.02,18.91-0.03,28.37,0c0.84,0.01,1.07-0.26,1.04-1.06c-0.06-1.27-0.02-2.54-0.02-3.81c0.57-0.03,0.76,0.34,1.04,0.56
			c3.37,2.56,7.12,4.19,11.38,4.26c6.66,0.1,13.33,0.02,19.99,0.05c0.7,0,1.02-0.22,1.26-0.86c0.71-1.91,1.51-3.78,2.23-5.68
			c0.24-0.65,0.58-0.9,1.27-0.89c2.01,0.04,4,0.05,6,0c0.81-0.02,1.19,0.29,1.46,1.01c0.66,1.79,1.44,3.54,2.09,5.33
			c0.3,0.85,0.74,1.1,1.63,1.1c8.25-0.04,16.49-0.02,24.75-0.03c1.2-0.01,2.78,0.51,3.51-0.19c0.79-0.77,0.21-2.36,0.25-3.6
			c0.05-1.32,0.02-2.66,0.02-3.99c1.75,2.29,3.26,4.58,4.69,6.9c0.39,0.64,0.81,0.91,1.58,0.9c6.09-0.03,12.16-0.05,18.25,0.01
			c1.03,0.01,1.13-0.37,1.13-1.22c-0.02-14.83-0.03-29.67,0.01-44.51c0-1.02-0.34-1.21-1.27-1.2c-5.84,0.04-11.67,0.06-17.5-0.01
			c-1.28-0.02-1.71,0.27-1.63,1.6c0.12,2.08,0.03,4.18,0.03,6.26c-1.86-2.32-3.47-4.68-5.03-7.07c-0.35-0.54-0.72-0.78-1.39-0.78
			c-6.09,0.03-12.17,0.04-18.25,0c-0.92-0.01-1.09,0.29-1.08,1.13c0.04,3.99,0.02,7.98,0.01,11.97c0,0.29,0.12,0.62-0.22,0.94
			c-1.89-4.37-3.77-8.66-5.6-12.97c-0.28-0.65-0.6-0.95-1.36-0.95c-11.5-0.01-23-0.1-34.5-0.08c-5.04,0.01-9.65,1.57-13.76,4.52
			c-0.27,0.19-0.48,0.61-0.98,0.38c0-1.16-0.09-2.33,0.03-3.48c0.12-1.25-0.35-1.47-1.52-1.47c-35.12,0.03-70.24,0.03-105.36,0.03
			c-0.13,0-0.25,0.01-0.37-0.01c-0.74-0.11-1.11,0.18-1.33,0.91c-0.46,1.51-1,2.99-1.53,4.47c-0.56,1.62-1.14,3.23-1.82,5.14
			c-1.21-3.4-2.34-6.47-3.41-9.56c-0.23-0.68-0.53-0.98-1.3-0.97c-7.38,0.03-14.75,0.04-22.13,0c-0.94-0.01-1.06,0.35-1.05,1.15
			c0.04,3.95,0.02,7.9,0.01,11.85c0,0.33-0.04,0.67-0.09,1.36c-0.33-0.72-0.5-1.09-0.66-1.47c-1.72-3.95-3.48-7.89-5.16-11.87
			c-0.32-0.77-0.7-1.03-1.54-1.02c-5.66,0.04-11.33,0.04-16.99-0.01c-0.97-0.01-1.44,0.26-1.83,1.19
			c-3.28,7.75-6.63,15.48-9.96,23.21C0.74,55,0.68,55.49,0.17,55.79l-0.25,0.23c0-41.47,0.01-82.94,0.01-124.41
			c0-0.36-0.28-0.84,0.24-1.12h299.21c0.41,0.01,0.96-0.15,0.75,0.63c-0.04,0.15-0.01,0.33-0.01,0.49V91.66h-6.16
			c-57.77,0-115.54,0-173.31-0.03c-1.28,0-2.15,0.31-2.92,1.39c-1.36,1.91-2.91,3.69-4.42,5.59c-1.6-2.1-3.15-4.06-4.63-6.06
			c-0.46-0.62-0.95-0.91-1.75-0.91c-15.83,0.03-31.66,0.03-47.5,0c-0.89,0-1.24,0.18-1.23,1.16c0.03,14.88,0.02,29.76,0,44.64
			c0,0.84,0.21,1.14,1.1,1.14c15.83-0.02,31.66-0.02,47.5,0c0.65,0,1.06-0.21,1.45-0.73c1.4-1.91,2.88-3.77,4.29-5.67
			c0.42-0.56,0.66-0.58,1.08,0c1.29,1.78,2.67,3.5,3.94,5.3c0.55,0.79,1.15,1.11,2.15,1.11c9-0.04,18-0.03,27-0.03
			c1.56,0,1.56,0,1.57-1.63c0-2.7,0.03-5.4-0.02-8.1c-0.02-0.88,0.26-1.15,1.12-1.11c1.58,0.06,3.17,0,4.75,0.02
			c2.85,0.02,5.66-0.21,8.32-1.3c0.91-0.37,1.02-0.15,1.01,0.7c-0.03,3.36,0.04,6.73-0.04,10.09c-0.03,1.16,0.36,1.37,1.41,1.36
			c5.33-0.05,10.67-0.03,15.99-0.03c2.35,0,2.35,0,2.35-2.35v-4.63c1.96,1.98,3.63,3.99,5.23,6.05c0.54,0.68,1.11,0.95,2,0.95
			c32.67-0.02,65.32-0.03,97.99,0c3.55,0,6.81-0.94,9.91-2.6c0,0,0.04-0.03,0.12-0.08C298.73,135.68,299.48,135.12,300.13,134.61z"
			/>
		<path class="st7" d="M298.6,135.79c0.11-0.07,0.22-0.15,0.34-0.19C298.82,135.64,298.71,135.71,298.6,135.79z"/>
		<path class="st8" d="M279.5,31.43c0-1.02-0.34-1.21-1.27-1.2c-5.84,0.04-11.67,0.06-17.5-0.01c-1.28-0.02-1.71,0.27-1.63,1.6
			c0.12,2.08,0.03,4.18,0.03,6.26c-1.86-2.32-3.47-4.68-5.03-7.07c-0.35-0.54-0.72-0.78-1.39-0.78c-6.09,0.03-12.17,0.04-18.25,0
			c-0.92-0.01-1.09,0.29-1.08,1.13c0.04,3.99,0.02,7.98,0.01,11.97c0,0.29,0.12,0.62-0.22,0.94c-1.89-4.37-3.77-8.66-5.6-12.97
			c-0.28-0.65-0.6-0.95-1.36-0.95c-11.5-0.01-23-0.1-34.5-0.08c-5.04,0.01-9.65,1.57-13.76,4.52c-0.27,0.19-0.48,0.61-0.98,0.38
			c0-1.16-0.09-2.33,0.03-3.48c0.12-1.25-0.35-1.47-1.52-1.47c-35.12,0.03-70.24,0.03-105.36,0.03c-0.13,0-0.25,0.01-0.37-0.01
			c-0.74-0.11-1.11,0.18-1.33,0.91c-0.46,1.51-1,2.99-1.53,4.47c-0.56,1.62-1.14,3.23-1.82,5.14c-1.21-3.4-2.34-6.47-3.41-9.56
			c-0.23-0.68-0.53-0.98-1.3-0.97c-7.38,0.03-14.75,0.04-22.13,0c-0.94-0.01-1.06,0.35-1.05,1.15c0.04,3.95,0.02,7.9,0.01,11.85
			c0,0.33-0.04,0.67-0.09,1.36c-0.33-0.72-0.5-1.09-0.66-1.47c-1.72-3.95-3.48-7.89-5.16-11.87c-0.32-0.77-0.7-1.03-1.54-1.02
			c-5.66,0.04-11.33,0.04-16.99-0.01c-0.97-0.01-1.44,0.26-1.83,1.19c-3.28,7.75-6.63,15.48-9.96,23.21
			C0.74,55,0.68,55.49,0.17,55.79l-0.25,0.23V77.1l1.31,0.01l2.17,0.02c3.22,0.02,6.44,0,9.66,0.02c0.74,0.01,1.1-0.22,1.36-0.91
			c0.69-1.87,1.49-3.69,2.19-5.56c0.26-0.69,0.6-0.98,1.36-0.96c2,0.05,4,0.05,6,0c0.77-0.02,1.1,0.3,1.35,0.97
			c0.66,1.74,1.45,3.44,2.06,5.21c0.34,1.01,0.87,1.26,1.9,1.26c36.62-0.03,73.23-0.03,109.86,0.01c1.26,0,1.63-0.31,1.54-1.56
			c-0.11-1.83-0.03-3.67-0.03-5.83c1.96,2.39,3.68,4.47,5.36,6.58c0.41,0.53,0.83,0.79,1.55,0.79c9.46-0.02,18.91-0.03,28.37,0
			c0.84,0.01,1.07-0.26,1.04-1.06c-0.06-1.27-0.02-2.54-0.02-3.81c0.57-0.03,0.76,0.34,1.04,0.56c3.37,2.56,7.12,4.19,11.38,4.26
			c6.66,0.1,13.33,0.02,19.99,0.05c0.7,0,1.02-0.22,1.26-0.86c0.71-1.91,1.51-3.78,2.23-5.68c0.24-0.65,0.58-0.9,1.27-0.89
			c2.01,0.04,4,0.05,6,0c0.81-0.02,1.19,0.29,1.46,1.01c0.66,1.79,1.44,3.54,2.09,5.33c0.3,0.85,0.74,1.1,1.63,1.1
			c8.25-0.04,16.49-0.02,24.75-0.03c1.2-0.01,2.78,0.51,3.51-0.19c0.79-0.77,0.21-2.36,0.25-3.6c0.05-1.32,0.02-2.66,0.02-3.99
			c1.75,2.29,3.26,4.58,4.69,6.9c0.39,0.64,0.81,0.91,1.58,0.9c6.09-0.03,12.16-0.05,18.25,0.01c1.03,0.01,1.13-0.37,1.13-1.22
			C279.47,61.11,279.46,46.27,279.5,31.43z M32.42,71.15c-0.55,0-0.67-0.35-0.83-0.75c-0.69-1.78-1.43-3.54-2.1-5.32
			c-0.25-0.67-0.54-0.98-1.31-0.97c-4.79,0.04-9.58,0.04-14.37,0c-0.76-0.01-1.1,0.27-1.34,0.95c-0.66,1.79-1.4,3.55-2.08,5.33
			c-0.2,0.52-0.45,0.77-1.07,0.77c-2.71-0.04-5.41-0.04-8.12-0.01c-0.83,0.01-0.87-0.23-0.57-0.93c4.82-11.15,9.63-22.3,14.42-33.46
			c0.23-0.54,0.53-0.75,1.11-0.75c3.29,0.03,6.59,0.05,9.88-0.01c0.86-0.01,1,0.54,1.24,1.1c4.22,9.79,8.43,19.58,12.64,29.36
			c0.65,1.51,1.29,3.03,2.01,4.68C38.65,71.14,35.53,71.13,32.42,71.15z M86.94,70.14c0.01,0.85-0.28,1.03-1.06,1.02
			c-2.17-0.05-4.33-0.07-6.5,0c-0.96,0.03-1.25-0.22-1.24-1.22c0.04-7.6,0.02-15.21,0.02-22.81v-1.24
			c-0.07-0.01-0.15-0.02-0.22-0.03c-2.26,6.27-4.52,12.55-6.78,18.82c-0.66,1.83-1.37,3.65-1.97,5.51
			c-0.25,0.78-0.63,0.99-1.42,0.97c-1.82-0.06-3.67-0.08-5.49,0c-0.92,0.05-1.28-0.31-1.58-1.13c-2.79-7.81-5.61-15.61-8.43-23.41
			c-0.08-0.22-0.17-0.45-0.44-0.67c-0.02,0.32-0.06,0.64-0.07,0.97c0,7.64-0.02,15.29,0.03,22.93c0,1.03-0.25,1.36-1.3,1.32
			c-2.17-0.09-4.33-0.05-6.5-0.02c-0.71,0.01-1.03-0.12-1.03-0.94c0.02-11.09,0.02-22.19,0-33.28c0-0.7,0.21-0.94,0.93-0.93
			c4.08,0.05,8.16,0.08,12.24,0.05c0.86-0.01,1.03,0.49,1.24,1.08c2.43,6.76,4.85,13.51,7.28,20.26c0.11,0.31,0.23,0.62,0.36,0.97
			c0.51-0.24,0.5-0.75,0.63-1.13c2.36-6.69,4.7-13.38,7.02-20.08c0.28-0.81,0.6-1.19,1.55-1.17c3.88,0.07,7.75,0.05,11.62,0.01
			c0.88-0.01,1.12,0.25,1.11,1.12C86.92,48.12,86.92,59.13,86.94,70.14z M121.68,64.87c-0.1,1.78-0.06,3.57-0.02,5.35
			c0.02,0.69-0.15,0.94-0.89,0.93c-8.95-0.02-17.91-0.02-26.86,0.01c-0.91,0-0.98-0.4-0.97-1.12c0.01-5.48,0.01-10.96,0.01-16.45
			c0-5.44,0.02-10.88-0.02-16.33c-0.01-0.94,0.19-1.28,1.22-1.27c8.78,0.04,17.58,0.04,26.36,0c0.96-0.01,1.2,0.28,1.16,1.19
			c-0.07,1.79-0.08,3.58,0,5.36c0.06,1.07-0.21,1.41-1.34,1.39c-5.71-0.06-11.42,0.01-17.13-0.05c-1.12-0.02-1.44,0.29-1.35,1.38
			c0.1,1.16,0.08,2.33,0,3.49c-0.06,0.93,0.23,1.19,1.18,1.19c5.57-0.05,11.16,0.01,16.73-0.05c1.14-0.02,1.5,0.28,1.43,1.43
			c-0.1,1.61-0.08,3.24-0.01,4.86c0.04,0.9-0.29,1.1-1.13,1.09c-5.58-0.03-11.16,0.01-16.74-0.04c-1.1-0.01-1.58,0.22-1.46,1.42
			c0.11,1.15,0.09,2.33,0,3.48c-0.08,1.07,0.2,1.42,1.35,1.4c5.71-0.06,11.41,0.01,17.12-0.05
			C121.44,63.47,121.73,63.78,121.68,64.87z M154.47,71.14c-1.57-0.02-3.36,0.38-4.66-0.22c-1.27-0.58-2.07-2.21-3.06-3.38
			c-2.07-2.44-4.2-4.84-6.17-7.36c-0.91-1.17-1.87-1.66-3.35-1.54c-1.84,0.15-1.67-0.27-1.68,1.66c-0.01,3.24-0.02,6.48,0.02,9.72
			c0.01,0.84-0.18,1.17-1.09,1.14c-2.25-0.06-4.5-0.05-6.75-0.01c-0.74,0.02-1-0.18-1-0.96c0.02-11.05,0.02-22.1,0-33.15
			c0-0.85,0.31-1.03,1.09-1.03c6.21,0.03,12.41-0.03,18.62,0.03c3.62,0.04,6.92,1.1,9.41,3.87c5.13,5.72,3.09,16.12-5.76,18.11
			c-0.28,0.06-0.56,0.14-1.06,0.26c3.83,4.29,7.56,8.46,11.49,12.86C158.33,71.14,156.41,71.15,154.47,71.14z M171.18,70.26
			c0,0.72-0.24,0.9-0.92,0.89c-2.34-0.03-4.67-0.05-7,0.01c-0.92,0.03-1.09-0.31-1.09-1.14c0.04-5.45,0.02-10.89,0.02-16.34
			c0-5.48,0.03-10.97-0.02-16.45c-0.01-1.02,0.3-1.27,1.26-1.24c2.25,0.07,4.5,0.05,6.75,0.01c0.75-0.02,1.01,0.18,1,0.97
			C171.16,48.06,171.16,59.16,171.18,70.26z M195.72,64.43c-1,1.95-1.95,3.94-2.86,5.94c-0.29,0.64-0.7,0.76-1.35,0.79
			c-9.5,0.3-14.82-6.08-15.84-14.4c-0.47-3.8-0.21-7.56,1.25-11.14c2.35-5.78,6.89-8.65,12.91-9.38c3.98-0.49,7.98-0.14,11.98-0.24
			c0.67-0.02,0.86,0.23,0.84,0.86c-0.04,1.12-0.01,2.25-0.01,3.37c0,1-0.05,2,0.01,2.99c0.06,0.85-0.21,1.15-1.1,1.13
			c-2.75-0.05-5.49-0.03-8.24-0.01c-5.44,0.04-8.81,3.41-8.92,8.88c-0.03,1.3,0.03,2.58,0.33,3.84c0.9,3.77,3.8,6.12,7.81,6.34
			c0.83,0.05,1.66,0.08,2.5,0.04C195.83,63.41,196.2,63.49,195.72,64.43z M228.89,71.15c-0.61,0.01-0.86-0.24-1.06-0.78
			c-0.69-1.82-1.46-3.61-2.14-5.44c-0.23-0.61-0.53-0.82-1.17-0.81c-4.83,0.02-9.67,0.02-14.49-0.01c-0.71,0-1.03,0.24-1.27,0.88
			c-0.66,1.78-1.43,3.53-2.09,5.32c-0.24,0.67-0.59,0.86-1.27,0.85c-2.54-0.05-5.08-0.06-7.62,0c-1.06,0.02-1.25-0.18-0.81-1.21
			c3.53-8.09,7.01-16.21,10.51-24.32c1.23-2.86,2.49-5.7,3.68-8.57c0.31-0.75,0.68-1.08,1.55-1.06c3.12,0.06,6.24,0.03,9.36,0.02
			c0.63-0.01,1.05,0.08,1.34,0.76c4.82,11.29,9.69,22.56,14.53,33.83c0.05,0.11,0.07,0.23,0.16,0.53
			C234.96,71.14,231.93,71.12,228.89,71.15z M273.46,70.18c0,0.76-0.22,0.99-0.99,0.98c-3-0.05-6-0.05-8.99,0
			c-0.79,0.02-1.07-0.43-1.42-0.96c-4.34-6.74-8.7-13.47-13.06-20.2c-0.24-0.37-0.49-0.72-0.78-1.14c-0.33,0.52-0.19,0.99-0.19,1.43
			c-0.01,6.52-0.03,13.05,0.01,19.57c0.01,1.04-0.27,1.34-1.31,1.3c-2.17-0.08-4.33-0.04-6.5-0.01c-0.72,0.02-1.02-0.14-1.02-0.95
			c0.02-11.05,0.02-22.11,0-33.16c0-0.83,0.26-1.06,1.07-1.05c3.09,0.04,6.17,0.06,9.25-0.01c0.85-0.02,1.15,0.46,1.52,1.02
			c4.19,6.49,8.39,12.98,12.58,19.47c0.27,0.41,0.55,0.8,0.85,1.25c0.31-0.46,0.18-0.88,0.18-1.26c0.01-6.4,0.02-12.81-0.01-19.21
			c-0.01-0.94,0.19-1.31,1.22-1.27c2.17,0.09,4.33,0.06,6.5,0.01c0.77-0.01,1.09,0.16,1.09,1.02
			C273.43,48.07,273.44,59.12,273.46,70.18z M295,105.32c-4.32,0.02-8.65,0-12.98,0.02c-0.66,0-1.33,0.04-1.99,0.16
			c-1.75,0.33-2.62,1.41-2.49,3.01c0.13,1.59,1.3,2.74,2.98,2.77c2.75,0.06,5.49,0.02,8.24,0.03c1.67,0,3.32,0.18,4.92,0.68
			c3.31,1.04,5.31,3.28,6.15,6.6c0.1,0.4,0.2,0.79,0.29,1.18V91.66h-6.16c-57.77,0-115.54,0-173.31-0.03
			c-1.28,0-2.15,0.31-2.92,1.39c-1.36,1.91-2.91,3.69-4.42,5.59c-1.6-2.1-3.15-4.06-4.63-6.06c-0.46-0.62-0.95-0.91-1.75-0.91
			c-15.83,0.03-31.66,0.03-47.5,0c-0.89,0-1.24,0.18-1.23,1.16c0.03,14.88,0.02,29.76,0,44.64c0,0.84,0.21,1.14,1.1,1.14
			c15.83-0.02,31.66-0.02,47.5,0c0.65,0,1.06-0.21,1.45-0.73c1.4-1.91,2.88-3.77,4.29-5.67c0.42-0.56,0.66-0.58,1.08,0
			c1.29,1.78,2.67,3.5,3.94,5.3c0.55,0.79,1.15,1.11,2.15,1.11c9-0.04,18-0.03,27-0.03c1.56,0,1.56,0,1.57-1.63
			c0-2.7,0.03-5.4-0.02-8.1c-0.02-0.88,0.26-1.15,1.12-1.11c1.58,0.06,3.17,0,4.75,0.02c2.85,0.02,5.66-0.21,8.32-1.3
			c0.91-0.37,1.02-0.15,1.01,0.7c-0.03,3.36,0.04,6.73-0.04,10.09c-0.03,1.16,0.36,1.37,1.41,1.36c5.33-0.05,10.67-0.03,15.99-0.03
			c2.35,0,2.35,0,2.35-2.35v-4.63c1.96,1.98,3.63,3.99,5.23,6.05c0.54,0.68,1.11,0.95,2,0.95c32.67-0.02,65.32-0.03,97.99,0
			c3.55,0,6.81-0.94,9.91-2.6c0,0,0.04-0.03,0.12-0.08c0.29-0.22,1.03-0.78,1.68-1.29v-11.6c-0.11,0.48-0.22,0.95-0.33,1.43
			c-1.09,4.66-4.73,7.88-9.59,8.01c-6.5,0.17-12.99,0.06-19.49,0.1c-0.68,0-0.83-0.27-0.82-0.89c0.03-1.87,0.05-3.74-0.01-5.6
			c-0.03-0.89,0.26-1.12,1.12-1.11c5.24,0.04,10.49,0.02,15.74,0.02c0.75,0,1.49-0.02,2.23-0.22c1.37-0.36,2.2-1.34,2.25-2.63
			c0.05-1.36-0.74-2.4-2.15-2.86c-0.73-0.23-1.47-0.22-2.23-0.24c-3.24-0.09-6.5,0.27-9.73-0.22c-4.86-0.74-8.03-4.29-8.25-9.17
			c-0.32-6.99,3.68-11.49,11.07-11.99c6.44-0.44,12.9-0.14,19.35-0.13c0.07,0,0.14,0.06,0.33,0.15c-1.14,2.43-2.29,4.86-3.42,7.29
			C295.94,105.53,295.42,105.32,295,105.32z M92.97,126.33c-0.1,1.78-0.05,3.57-0.02,5.36c0.01,0.64-0.19,0.86-0.85,0.86
			c-8.99-0.02-17.99-0.02-26.99,0c-0.93,0-0.84-0.55-0.84-1.14c0.01-5.48,0-10.97,0-16.46c0-5.4,0.02-10.8-0.01-16.2
			c-0.01-0.94,0.21-1.29,1.23-1.29c8.74,0.04,17.5,0.04,26.24,0c1,0,1.27,0.3,1.23,1.26c-0.07,1.79-0.07,3.58,0,5.36
			c0.04,0.97-0.22,1.26-1.22,1.25c-5.8-0.05-11.58,0-17.38-0.05c-0.99-0.01-1.28,0.28-1.22,1.24c0.09,1.16,0.09,2.33,0,3.49
			c-0.08,1.02,0.21,1.33,1.27,1.32c5.58-0.06,11.17,0,16.75-0.05c1-0.01,1.39,0.2,1.33,1.28c-0.09,1.62-0.08,3.25,0,4.86
			c0.05,1.02-0.24,1.35-1.3,1.34c-5.58-0.06-11.17,0-16.74-0.05c-1.03-0.01-1.4,0.23-1.31,1.29c0.1,1.2,0.1,2.41,0,3.61
			c-0.08,1.07,0.21,1.41,1.35,1.39c5.71-0.06,11.41,0.01,17.12-0.06C92.74,124.93,93.02,125.24,92.97,126.33z M119.08,115.86
			c4.17,5.18,8.31,10.39,12.45,15.6c0.22,0.28,0.56,0.5,0.56,1.08c-2.08,0-4.14,0.01-6.2,0c-1.5-0.01-3.23,0.42-4.43-0.19
			c-1.24-0.62-1.99-2.25-2.93-3.46c-1.57-2.04-3.19-4.06-4.67-6.16c-0.7-0.98-0.99-0.77-1.59,0.06c-2.18,2.99-4.43,5.93-6.61,8.92
			c-0.44,0.59-0.88,0.86-1.64,0.85c-3.2-0.04-6.4-0.02-9.6-0.02c-0.08-0.54,0.3-0.75,0.52-1.02c4.09-5.09,8.17-10.18,12.3-15.24
			c0.64-0.78,0.7-1.25,0.02-2.08c-4.19-5.11-8.31-10.28-12.46-15.43c-0.27-0.35-0.54-0.7-1-1.29c3.69,0,7.06,0.01,10.44-0.01
			c0.67-0.01,0.93,0.45,1.26,0.87c2.37,3.05,4.76,6.09,7.09,9.17c0.56,0.74,0.83,0.91,1.48,0.05c2.38-3.16,4.84-6.24,7.26-9.37
			c0.32-0.41,0.61-0.73,1.2-0.72c3.12,0.03,6.25,0.02,9.37,0.03c0.1,0,0.21,0.07,0.45,0.17c-2.15,2.67-4.24,5.28-6.34,7.89
			c-2.33,2.89-4.61,5.8-6.98,8.64C118.5,114.86,118.57,115.24,119.08,115.86z M165.39,111.07c-0.42,4.6-3.54,8.24-8.32,9.67
			c-2.05,0.61-4.15,0.78-6.29,0.76c-2.38-0.02-4.75,0.05-7.12-0.03c-1.03-0.03-1.24,0.33-1.22,1.27c0.06,2.87-0.03,5.74,0.05,8.6
			c0.02,1.02-0.33,1.25-1.27,1.22c-2.21-0.06-4.42-0.07-6.62,0c-0.96,0.03-1.18-0.29-1.17-1.2c0.04-5.44,0.02-10.88,0.02-16.32
			s0.02-10.88-0.03-16.32c-0.01-1.02,0.32-1.24,1.27-1.24c6,0.04,11.99,0.03,17.99,0.02c2.41-0.01,4.71,0.35,6.87,1.48
			C163.85,101.24,165.91,105.49,165.39,111.07z M201.79,132.53c-2.75,0.02-5.5-0.03-8.25,0.03c-0.88,0.02-1.43-0.28-1.99-0.95
			c-2.98-3.59-6.01-7.13-9.01-10.68c-0.58-0.69-3.36-1.25-4.13-0.82c-0.43,0.24-0.26,0.67-0.26,1.02
			c-0.01,3.36-0.07,6.73,0.02,10.09c0.04,1.16-0.35,1.38-1.4,1.34c-2.16-0.07-4.32-0.05-6.49-0.01c-0.71,0.01-0.92-0.22-0.92-0.92
			c0.02-11.09,0.02-22.19,0-33.28c0-0.63,0.17-0.88,0.84-0.88c6.79,0.05,13.58-0.06,20.36,0.14c5.2,0.17,9.43,3.92,10.36,8.72
			c1.03,5.31-1.22,10.06-5.82,12.3c-1.04,0.51-2.16,0.8-3.52,1.03c3.86,4.32,7.56,8.47,11.27,12.62
			C202.53,132.7,202.13,132.53,201.79,132.53z M233.62,126.47c-0.11,1.65-0.06,3.32-0.02,4.98c0.02,0.76-0.12,1.11-1,1.1
			c-8.91-0.03-17.83-0.03-26.74,0.01c-0.9,0-0.98-0.38-0.98-1.11c0.03-5.48,0.02-10.97,0.02-16.45c0-5.44,0.01-10.88-0.02-16.33
			c-0.01-0.88,0.17-1.21,1.14-1.21c8.78,0.04,17.58,0.04,26.36,0.01c1.01-0.01,1.27,0.32,1.23,1.27c-0.07,1.83-0.06,3.66,0,5.49
			c0.04,0.89-0.28,1.1-1.13,1.09c-5.79-0.03-11.57,0.01-17.37-0.04c-1.06-0.01-1.49,0.22-1.38,1.35c0.1,1.07,0.08,2.16,0,3.24
			c-0.09,1.09,0.21,1.48,1.4,1.47c5.49-0.07,11,0,16.49-0.06c1.07-0.01,1.47,0.23,1.4,1.36c-0.1,1.66-0.07,3.32-0.01,4.98
			c0.03,0.88-0.27,1.13-1.14,1.13c-5.57-0.04-11.16,0.02-16.73-0.05c-1.19-0.01-1.5,0.37-1.41,1.47c0.08,1.12,0.08,2.25,0,3.36
			c-0.08,1.1,0.22,1.49,1.41,1.47c5.66-0.06,11.33,0.01,16.99-0.06C233.37,124.93,233.69,125.28,233.62,126.47z M267.79,122.74
			c-0.83,6.2-4.6,9.62-10.88,9.77c-2.92,0.06-5.84,0.01-8.75,0.01c0,0,0,0.01,0,0.02c-3.16,0-6.33-0.03-9.5,0.02
			c-0.81,0.01-1.06-0.24-1.04-1.05c0.06-1.83,0.07-3.66,0-5.48c-0.04-0.92,0.31-1.08,1.14-1.08c5.28,0.03,10.58,0.01,15.86,0.02
			c0.76,0.01,1.5-0.05,2.23-0.25c1.28-0.38,2.06-1.38,2.09-2.64c0.03-1.27-0.68-2.29-1.94-2.75c-0.75-0.28-1.53-0.29-2.34-0.31
			c-3.28-0.09-6.58,0.28-9.85-0.22c-4.76-0.73-7.9-4.19-8.2-8.96c-0.45-7.14,3.71-11.78,11.22-12.23
			c6.24-0.36,12.48-0.07,18.73-0.14c0.86-0.01,0.72,0.35,0.47,0.89c-0.98,2.06-1.98,4.11-2.9,6.2c-0.29,0.67-0.7,0.78-1.34,0.78
			c-4.33-0.02-8.66-0.01-12.99-0.01c-0.7,0-1.4,0.01-2.11,0.17c-1.66,0.38-2.58,1.45-2.46,2.94c0.12,1.58,1.3,2.8,2.95,2.84
			c2.62,0.06,5.24,0.03,7.86,0.02c2.02-0.01,4,0.16,5.9,0.87C266.15,113.74,268.44,117.91,267.79,122.74z"/>
		<path class="st7" d="M298.6,135.79c0.11-0.07,0.22-0.15,0.34-0.19C298.82,135.64,298.71,135.71,298.6,135.79z"/>
		<path class="st9" d="M300.13,123.01c-0.11,0.48-0.22,0.95-0.33,1.43c-1.09,4.66-4.73,7.88-9.59,8.01
			c-6.49,0.17-12.99,0.07-19.48,0.1c-0.68,0-0.84-0.27-0.83-0.89c0.03-1.87,0.06-3.74-0.01-5.61c-0.03-0.89,0.26-1.11,1.12-1.1
			c5.25,0.04,10.49,0.01,15.74,0.02c0.75,0,1.5-0.03,2.23-0.22c1.38-0.36,2.2-1.34,2.25-2.64c0.05-1.36-0.74-2.39-2.14-2.85
			c-0.73-0.24-1.47-0.22-2.22-0.24c-3.24-0.09-6.5,0.27-9.73-0.22c-4.87-0.74-8.04-4.29-8.26-9.17
			c-0.32-6.99,3.69-11.49,11.07-11.99c6.44-0.44,12.9-0.14,19.36-0.13c0.07,0,0.14,0.06,0.33,0.15c-1.14,2.43-2.28,4.86-3.42,7.29
			c-0.27,0.58-0.78,0.37-1.2,0.37c-4.33,0.02-8.66,0-12.99,0.02c-0.66,0-1.33,0.04-1.98,0.16c-1.75,0.33-2.62,1.41-2.49,3.01
			c0.13,1.59,1.31,2.74,2.98,2.78c2.75,0.05,5.5,0.02,8.24,0.02c1.67,0,3.32,0.18,4.92,0.69c3.3,1.04,5.31,3.27,6.14,6.6
			c0.1,0.39,0.2,0.78,0.3,1.18C300.13,120.85,300.13,121.93,300.13,123.01z"/>
		<path class="st9" d="M77.94,45.86c-2.26,6.27-4.52,12.55-6.78,18.82c-0.66,1.83-1.37,3.65-1.97,5.51c-0.25,0.78-0.63,1-1.42,0.97
			c-1.83-0.06-3.67-0.08-5.5,0.01c-0.93,0.04-1.29-0.31-1.58-1.14c-2.79-7.81-5.62-15.6-8.44-23.4c-0.08-0.23-0.17-0.45-0.44-0.68
			c-0.02,0.32-0.06,0.65-0.06,0.97c0,7.65-0.02,15.29,0.02,22.94c0.01,1.03-0.25,1.35-1.3,1.31c-2.16-0.09-4.33-0.05-6.5-0.01
			c-0.71,0.01-1.03-0.12-1.03-0.94c0.03-11.09,0.02-22.19,0.01-33.29c0-0.69,0.21-0.94,0.93-0.93c4.08,0.05,8.16,0.08,12.24,0.04
			c0.86-0.01,1.03,0.49,1.24,1.09c2.42,6.75,4.85,13.5,7.28,20.25C64.75,57.7,64.87,58,65,58.36c0.51-0.24,0.5-0.75,0.63-1.13
			c2.35-6.69,4.7-13.38,7.02-20.08c0.28-0.81,0.6-1.19,1.56-1.17c3.87,0.07,7.75,0.05,11.62,0.01c0.88-0.01,1.12,0.25,1.11,1.12
			c-0.03,11.01-0.03,22.02,0,33.04c0,0.85-0.29,1.03-1.07,1.01c-2.16-0.05-4.33-0.06-6.5,0.01c-0.96,0.03-1.25-0.22-1.25-1.22
			c0.04-7.6,0.02-15.21,0.02-22.81c0-0.41,0-0.83,0-1.24C78.09,45.88,78.01,45.87,77.94,45.86z"/>
		<path class="st9" d="M248.2,48.86c-0.34,0.52-0.2,0.99-0.2,1.43c-0.01,6.53-0.03,13.05,0.02,19.58c0.01,1.04-0.27,1.34-1.32,1.3
			c-2.16-0.08-4.33-0.05-6.5-0.01c-0.72,0.01-1.03-0.14-1.02-0.95c0.02-11.06,0.02-22.11,0-33.17c0-0.83,0.26-1.06,1.08-1.05
			c3.08,0.04,6.17,0.06,9.25-0.01c0.85-0.02,1.16,0.46,1.52,1.02c4.19,6.49,8.39,12.98,12.59,19.47c0.26,0.41,0.55,0.8,0.85,1.25
			c0.31-0.46,0.17-0.88,0.17-1.26c0.01-6.4,0.03-12.8-0.01-19.2c-0.01-0.94,0.19-1.31,1.23-1.27c2.16,0.08,4.33,0.05,6.5,0.01
			c0.77-0.01,1.1,0.15,1.09,1.02c-0.03,11.06-0.02,22.11,0,33.17c0,0.77-0.22,0.99-0.99,0.98c-3-0.04-6-0.05-9,0.01
			c-0.79,0.01-1.08-0.43-1.42-0.96c-4.35-6.74-8.71-13.47-13.07-20.2C248.74,49.63,248.49,49.27,248.2,48.86z"/>
		<path class="st9" d="M149.04,58.28c3.83,4.29,7.56,8.46,11.49,12.86c-2.19,0-4.12,0.01-6.05,0c-1.58-0.01-3.36,0.39-4.67-0.22
			c-1.27-0.58-2.06-2.21-3.05-3.38c-2.07-2.44-4.2-4.84-6.17-7.36c-0.91-1.17-1.88-1.66-3.35-1.54c-1.85,0.15-1.67-0.27-1.68,1.66
			c-0.01,3.24-0.03,6.48,0.01,9.72c0.01,0.84-0.18,1.17-1.09,1.14c-2.25-0.06-4.5-0.05-6.74-0.01c-0.75,0.01-1.01-0.19-1.01-0.97
			c0.02-11.05,0.02-22.1,0-33.15c0-0.85,0.32-1.03,1.1-1.03c6.2,0.03,12.41-0.03,18.61,0.03c3.62,0.04,6.92,1.1,9.41,3.87
			c5.14,5.71,3.09,16.11-5.75,18.1C149.82,58.08,149.54,58.16,149.04,58.28z M141.28,51.25C141.28,51.25,141.28,51.25,141.28,51.25
			c1.5-0.01,3,0.03,4.5-0.02c2.28-0.07,3.98-1.67,3.97-3.65c-0.01-1.95-1.78-3.62-3.99-3.66c-3.08-0.05-6.16,0-9.24-0.03
			c-0.66-0.01-0.98,0.14-0.97,0.89c0.04,1.87,0.03,3.74,0,5.61c-0.01,0.64,0.21,0.88,0.86,0.87
			C138.03,51.23,139.65,51.25,141.28,51.25z"/>
		<path class="st7" d="M191.58,119.66c3.86,4.32,7.57,8.47,11.28,12.62c-0.33,0.42-0.73,0.24-1.07,0.25
			c-2.75,0.02-5.5-0.03-8.25,0.03c-0.89,0.02-1.44-0.28-1.99-0.95c-2.97-3.58-6-7.12-9.01-10.68c-0.59-0.69-3.37-1.24-4.13-0.82
			c-0.43,0.24-0.26,0.67-0.26,1.01c-0.01,3.37-0.07,6.73,0.02,10.09c0.03,1.16-0.35,1.38-1.4,1.34c-2.16-0.08-4.33-0.05-6.5-0.01
			c-0.71,0.01-0.92-0.22-0.92-0.92c0.02-11.09,0.02-22.19,0-33.28c0-0.63,0.17-0.88,0.84-0.88c6.79,0.05,13.58-0.07,20.36,0.14
			c5.21,0.16,9.44,3.92,10.36,8.71c1.02,5.31-1.23,10.06-5.82,12.31C194.06,119.14,192.94,119.43,191.58,119.66z M183.79,105.31
			c-1.62,0-3.24,0.02-4.86-0.01c-0.58-0.01-0.81,0.16-0.8,0.77c0.03,1.95,0.02,3.89,0,5.84c-0.01,0.54,0.11,0.84,0.75,0.83
			c3.16-0.03,6.32,0.06,9.47-0.05c2.35-0.08,4.1-1.84,4.01-3.77c-0.09-2-1.98-3.58-4.34-3.61
			C186.61,105.3,185.2,105.31,183.79,105.31z"/>
		<path class="st9" d="M92.94,53.59c0-5.44,0.02-10.89-0.02-16.33c-0.01-0.94,0.2-1.28,1.23-1.28c8.79,0.04,17.58,0.04,26.36,0
			c0.96,0,1.2,0.28,1.16,1.19c-0.07,1.78-0.09,3.58,0,5.36c0.05,1.07-0.22,1.41-1.35,1.39c-5.7-0.06-11.41,0-17.12-0.06
			c-1.12-0.01-1.45,0.3-1.36,1.38c0.1,1.16,0.08,2.33,0,3.49c-0.06,0.93,0.23,1.2,1.18,1.19c5.58-0.05,11.16,0.01,16.74-0.05
			c1.14-0.01,1.5,0.29,1.43,1.43c-0.1,1.61-0.08,3.24-0.01,4.86c0.04,0.9-0.29,1.1-1.14,1.09c-5.58-0.03-11.16,0.01-16.74-0.04
			c-1.1-0.01-1.58,0.22-1.47,1.42c0.11,1.15,0.09,2.33,0,3.49c-0.08,1.07,0.2,1.42,1.35,1.4c5.7-0.06,11.41,0,17.12-0.06
			c1.12-0.01,1.42,0.3,1.36,1.39c-0.09,1.78-0.05,3.57-0.01,5.36c0.02,0.68-0.16,0.93-0.89,0.93c-8.95-0.02-17.91-0.03-26.86,0.01
			c-0.92,0-0.98-0.4-0.98-1.12C92.95,64.56,92.95,59.07,92.94,53.59z"/>
		<path class="st9" d="M64.27,114.95c0-5.4,0.02-10.81-0.02-16.21c-0.01-0.94,0.21-1.29,1.24-1.28c8.75,0.04,17.5,0.04,26.24,0
			c1,0,1.27,0.3,1.23,1.26c-0.07,1.78-0.07,3.58,0,5.36c0.04,0.97-0.23,1.25-1.23,1.25c-5.79-0.05-11.58,0-17.37-0.05
			c-1-0.01-1.29,0.27-1.22,1.24c0.08,1.16,0.09,2.33,0,3.49c-0.08,1.01,0.2,1.33,1.28,1.32c5.58-0.06,11.16,0,16.75-0.05
			c1.01-0.01,1.4,0.2,1.34,1.28c-0.09,1.62-0.08,3.24,0,4.86c0.05,1.02-0.24,1.34-1.3,1.33c-5.58-0.05-11.16,0-16.75-0.05
			c-1.03-0.01-1.4,0.23-1.31,1.29c0.1,1.2,0.09,2.41,0,3.61c-0.08,1.07,0.21,1.4,1.35,1.39c5.71-0.07,11.41,0,17.12-0.06
			c1.13-0.01,1.41,0.3,1.36,1.38c-0.09,1.78-0.05,3.57-0.01,5.36c0.01,0.65-0.19,0.86-0.85,0.86c-9-0.02-18-0.02-26.99,0
			c-0.93,0-0.84-0.55-0.84-1.14C64.27,125.93,64.27,120.44,64.27,114.95z"/>
		<path class="st7" d="M204.89,115c0-5.44,0.02-10.88-0.02-16.33c-0.01-0.89,0.17-1.21,1.15-1.21c8.79,0.04,17.57,0.04,26.36,0
			c1.02,0,1.27,0.33,1.23,1.28c-0.07,1.83-0.07,3.66,0,5.48c0.03,0.9-0.28,1.1-1.13,1.1c-5.79-0.03-11.58,0.01-17.36-0.04
			c-1.07-0.01-1.5,0.22-1.39,1.35c0.1,1.07,0.09,2.16,0,3.24c-0.09,1.09,0.21,1.48,1.41,1.47c5.5-0.07,10.99,0,16.49-0.06
			c1.07-0.01,1.47,0.23,1.4,1.36c-0.1,1.66-0.07,3.32-0.01,4.98c0.03,0.87-0.27,1.13-1.14,1.12c-5.58-0.03-11.16,0.02-16.74-0.05
			c-1.19-0.01-1.5,0.37-1.41,1.47c0.09,1.11,0.08,2.25,0,3.36c-0.08,1.1,0.22,1.49,1.42,1.47c5.66-0.07,11.33,0.01,16.99-0.06
			c1.24-0.02,1.56,0.34,1.48,1.53c-0.11,1.65-0.06,3.32-0.01,4.98c0.02,0.75-0.13,1.11-1.01,1.1c-8.91-0.03-17.82-0.03-26.73,0
			c-0.91,0-0.98-0.38-0.98-1.11C204.9,125.97,204.89,120.48,204.89,115z"/>
		<path class="st9" d="M41.92,71.14c-3.28,0-6.39-0.01-9.5,0.01c-0.55,0-0.67-0.35-0.83-0.75c-0.69-1.78-1.44-3.53-2.1-5.32
			c-0.25-0.67-0.54-0.97-1.32-0.97c-4.79,0.04-9.58,0.04-14.36,0c-0.77-0.01-1.1,0.27-1.35,0.95c-0.66,1.79-1.39,3.55-2.07,5.33
			c-0.2,0.52-0.45,0.77-1.07,0.77c-2.71-0.04-5.41-0.04-8.12,0c-0.83,0.01-0.88-0.23-0.58-0.93c4.82-11.15,9.63-22.31,14.42-33.47
			c0.23-0.54,0.53-0.75,1.12-0.74c3.29,0.02,6.58,0.04,9.87-0.01c0.87-0.01,1.01,0.54,1.25,1.1c4.21,9.79,8.43,19.57,12.64,29.36
			C40.57,67.97,41.22,69.49,41.92,71.14z M20.95,44.21c-1.64,4.06-3.13,7.79-4.65,11.5c-0.29,0.71,0.05,0.77,0.6,0.76
			c2.71-0.01,5.42-0.02,8.12,0.01c0.62,0,0.84-0.14,0.58-0.78C24.09,51.98,22.59,48.25,20.95,44.21z"/>
		<path class="st9" d="M238.11,71.14c-3.15,0-6.18-0.02-9.22,0.01c-0.61,0.01-0.86-0.24-1.07-0.78c-0.69-1.82-1.46-3.61-2.13-5.44
			c-0.23-0.61-0.53-0.82-1.17-0.81c-4.83,0.02-9.66,0.03-14.49,0c-0.71,0-1.03,0.24-1.27,0.88c-0.67,1.79-1.43,3.54-2.08,5.33
			c-0.24,0.67-0.59,0.85-1.27,0.84c-2.54-0.04-5.08-0.06-7.62,0c-1.07,0.03-1.26-0.18-0.81-1.2c3.53-8.1,7.01-16.21,10.5-24.32
			c1.23-2.86,2.49-5.7,3.68-8.57c0.31-0.75,0.68-1.08,1.55-1.06c3.12,0.06,6.25,0.03,9.37,0.02c0.63,0,1.05,0.08,1.34,0.77
			c4.83,11.28,9.68,22.55,14.53,33.83C237.99,70.72,238.02,70.84,238.11,71.14z M217.21,44.21c-1.65,4.08-3.18,7.87-4.72,11.66
			c-0.25,0.61,0.18,0.59,0.57,0.59c2.75,0,5.49-0.01,8.24,0.01c0.65,0.01,0.81-0.17,0.56-0.78
			C220.34,51.98,218.84,48.26,217.21,44.21z"/>
		<path class="st9" d="M248.16,132.54c-3.17,0-6.33-0.03-9.49,0.02c-0.82,0.01-1.07-0.23-1.04-1.05c0.06-1.83,0.07-3.66,0-5.48
			c-0.04-0.92,0.31-1.08,1.14-1.07c5.29,0.03,10.58,0.01,15.87,0.02c0.76,0,1.5-0.05,2.22-0.26c1.29-0.37,2.06-1.38,2.09-2.63
			c0.03-1.27-0.68-2.3-1.93-2.76c-0.75-0.28-1.54-0.29-2.34-0.31c-3.28-0.09-6.58,0.28-9.85-0.22c-4.75-0.72-7.9-4.19-8.2-8.96
			c-0.45-7.14,3.71-11.78,11.22-12.23c6.24-0.37,12.49-0.08,18.74-0.14c0.86-0.01,0.72,0.35,0.47,0.89
			c-0.98,2.06-1.98,4.11-2.89,6.2c-0.29,0.67-0.7,0.78-1.34,0.78c-4.33-0.02-8.66-0.01-12.99-0.01c-0.71,0-1.41,0.01-2.11,0.17
			c-1.66,0.38-2.57,1.45-2.45,2.95c0.12,1.58,1.31,2.8,2.94,2.84c2.62,0.06,5.25,0.04,7.87,0.02c2.01-0.01,3.99,0.15,5.89,0.87
			c4.2,1.58,6.49,5.75,5.85,10.57c-0.83,6.2-4.61,9.62-10.88,9.76c-2.91,0.07-5.83,0.01-8.74,0.01
			C248.16,132.52,248.16,132.53,248.16,132.54z"/>
		<path class="st9" d="M133.44,115.04c0-5.44,0.03-10.88-0.02-16.32c-0.01-1.01,0.32-1.24,1.27-1.23
			c5.99,0.04,11.99,0.03,17.98,0.02c2.4,0,4.72,0.35,6.87,1.49c4.3,2.26,6.36,6.51,5.85,12.08c-0.42,4.6-3.55,8.25-8.32,9.67
			c-2.05,0.61-4.16,0.78-6.29,0.76c-2.37-0.02-4.75,0.05-7.12-0.03c-1.03-0.04-1.24,0.33-1.22,1.27c0.06,2.86-0.03,5.73,0.04,8.6
			c0.03,1.02-0.32,1.25-1.27,1.22c-2.2-0.06-4.41-0.07-6.62,0c-0.96,0.03-1.18-0.29-1.17-1.2
			C133.46,125.92,133.44,120.48,133.44,115.04z M147.9,113.51c1.46,0,2.91,0.03,4.37-0.01c2.12-0.05,3.66-1.18,4.15-2.95
			c0.77-2.86-1.05-5.06-4.38-5.15c-2.87-0.07-5.74-0.01-8.62-0.03c-0.66-0.01-0.99,0.15-0.98,0.9c0.04,2.12,0.04,4.24,0,6.35
			c-0.01,0.73,0.28,0.92,0.96,0.9C144.9,113.48,146.4,113.51,147.9,113.51z"/>
		<path class="st9" d="M93.8,97.48c3.69,0,7.06,0.01,10.43-0.01c0.67,0,0.94,0.45,1.26,0.87c2.37,3.05,4.76,6.09,7.1,9.18
			c0.56,0.73,0.83,0.91,1.48,0.05c2.38-3.15,4.84-6.24,7.26-9.37c0.32-0.41,0.61-0.73,1.2-0.72c3.12,0.03,6.25,0.02,9.37,0.03
			c0.11,0,0.21,0.08,0.45,0.17c-2.14,2.67-4.24,5.28-6.34,7.9c-2.32,2.89-4.61,5.79-6.97,8.64c-0.55,0.66-0.48,1.04,0.03,1.66
			c4.17,5.18,8.31,10.39,12.45,15.6c0.22,0.28,0.57,0.49,0.56,1.08c-2.08,0-4.14,0.01-6.2,0c-1.5-0.01-3.23,0.42-4.43-0.18
			c-1.24-0.63-1.99-2.26-2.93-3.47c-1.58-2.04-3.19-4.05-4.68-6.16c-0.7-0.98-0.99-0.77-1.59,0.06c-2.17,3-4.43,5.93-6.61,8.92
			c-0.44,0.6-0.88,0.86-1.64,0.85c-3.2-0.04-6.4-0.02-9.6-0.02c-0.08-0.54,0.3-0.75,0.52-1.02c4.09-5.09,8.17-10.19,12.3-15.24
			c0.64-0.78,0.7-1.25,0.02-2.08c-4.19-5.11-8.32-10.28-12.46-15.43C94.53,98.42,94.26,98.07,93.8,97.48z"/>
		<path class="st9" d="M202.65,40.23c0,1-0.05,2,0.02,2.99c0.06,0.86-0.21,1.15-1.1,1.13c-2.75-0.05-5.5-0.04-8.24-0.01
			c-5.45,0.04-8.81,3.41-8.93,8.89c-0.03,1.29,0.03,2.58,0.33,3.84c0.91,3.77,3.8,6.12,7.81,6.34c0.83,0.05,1.67,0.07,2.5,0.04
			c0.8-0.03,1.18,0.05,0.69,0.98c-1.01,1.95-1.95,3.94-2.86,5.94c-0.29,0.64-0.7,0.77-1.35,0.79c-9.5,0.31-14.82-6.08-15.84-14.4
			c-0.47-3.8-0.2-7.56,1.25-11.14c2.35-5.77,6.89-8.64,12.92-9.38c3.98-0.49,7.99-0.14,11.98-0.24c0.67-0.02,0.86,0.23,0.84,0.87
			C202.62,37.98,202.65,39.11,202.65,40.23z"/>
		<path class="st9" d="M162.18,53.68c0-5.49,0.03-10.97-0.02-16.46c-0.01-1.01,0.3-1.26,1.27-1.24c2.25,0.07,4.5,0.05,6.75,0.01
			c0.75-0.01,1.01,0.18,1,0.97c-0.02,11.1-0.02,22.19,0,33.29c0,0.73-0.24,0.91-0.93,0.9c-2.33-0.04-4.67-0.06-7,0.01
			c-0.92,0.03-1.09-0.31-1.08-1.14C162.2,64.57,162.18,59.13,162.18,53.68z"/>
		<path class="st8" d="M141.28,51.25c-1.62,0-3.25-0.02-4.87,0.01c-0.65,0.01-0.87-0.23-0.86-0.87c0.03-1.87,0.04-3.74,0-5.61
			c-0.02-0.75,0.31-0.89,0.97-0.89c3.08,0.03,6.16-0.02,9.24,0.03c2.22,0.04,3.98,1.71,3.99,3.66c0.01,1.98-1.69,3.58-3.97,3.65
			C144.28,51.28,142.78,51.25,141.28,51.25C141.28,51.25,141.28,51.25,141.28,51.25z"/>
		<path class="st8" d="M183.79,105.31c1.41,0,2.82-0.01,4.24,0c2.35,0.03,4.25,1.61,4.34,3.61c0.09,1.94-1.67,3.7-4.01,3.77
			c-3.15,0.1-6.31,0.02-9.47,0.05c-0.64,0.01-0.75-0.29-0.75-0.83c0.02-1.95,0.03-3.9,0-5.84c-0.01-0.61,0.22-0.78,0.8-0.77
			C180.55,105.33,182.17,105.31,183.79,105.31z"/>
		<path class="st8" d="M20.95,44.21c1.63,4.04,3.13,7.77,4.65,11.49c0.26,0.64,0.04,0.78-0.58,0.78c-2.71-0.02-5.42-0.01-8.12-0.01
			c-0.56,0-0.89-0.06-0.6-0.76C17.82,52,19.31,48.27,20.95,44.21z"/>
		<path class="st8" d="M217.21,44.21c1.63,4.04,3.13,7.77,4.65,11.49c0.25,0.61,0.09,0.78-0.56,0.78c-2.75-0.02-5.49-0.01-8.24-0.01
			c-0.39,0-0.82,0.02-0.57-0.59C214.02,52.08,215.56,48.29,217.21,44.21z"/>
		<path class="st8" d="M147.9,113.51c-1.5,0-3-0.03-4.5,0.01c-0.68,0.02-0.97-0.17-0.96-0.9c0.04-2.12,0.04-4.24,0-6.35
			c-0.01-0.75,0.32-0.9,0.98-0.9c2.87,0.02,5.75-0.05,8.62,0.03c3.32,0.09,5.15,2.29,4.38,5.15c-0.48,1.78-2.03,2.9-4.15,2.95
			C150.82,113.53,149.36,113.51,147.9,113.51z"/>
	</g>
</g>
</svg>
