<?xml version="1.0" encoding="utf-8"?>
<!-- Generator: Adobe Illustrator 24.0.0, SVG Export Plug-In . SVG Version: 6.00 Build 0)  -->
<svg version="1.1" id="Layer_1" xmlns="http://www.w3.org/2000/svg" xmlns:xlink="http://www.w3.org/1999/xlink" x="0px" y="0px"
	 viewBox="0 0 300 160" style="enable-background:new 0 0 300 160;" xml:space="preserve">
<style type="text/css">
	.st0{fill:#FFFFFF;}
	.st1{fill-rule:evenodd;clip-rule:evenodd;fill:#2790C3;}
	.st2{fill-rule:evenodd;clip-rule:evenodd;fill:#27346A;}
	.st3{fill-rule:evenodd;clip-rule:evenodd;fill:#1F264F;}
</style>
<path class="st0" d="M288.9,160H11.1C5,160,0,155,0,148.9c0,0,0,0,0,0V11.1C0,5,5,0,11.1,0c0,0,0,0,0,0h277.8C295,0,300,5,300,11.1
	c0,0,0,0,0,0v137.8C300,155,295,160,288.9,160C288.9,160,288.9,160,288.9,160z"/>
<g id="Page-1">
	<g id="pp_fc_hl">
		<g id="pp_h_rgb">
			<path id="Fill-1" class="st1" d="M227.1,75.6c-0.8,5.5-5,5.5-9.1,5.5h-2.3l1.6-10.3c0.1-0.6,0.6-1.1,1.3-1.1h1.1
				c2.8,0,5.4,0,6.7,1.6C227.2,72.3,227.4,73.7,227.1,75.6L227.1,75.6z M225.3,61.2H210c-1,0-1.9,0.8-2.1,1.8l-6.2,39.5
				c-0.1,0.7,0.4,1.4,1.1,1.5c0.1,0,0.1,0,0.2,0h7.9c0.7,0,1.4-0.5,1.5-1.3l1.8-11.2c0.2-1,1.1-1.8,2.1-1.8h4.9
				c10.1,0,15.9-4.9,17.5-14.6c0.7-4.3,0-7.6-2-9.9C234.3,62.6,230.5,61.2,225.3,61.2L225.3,61.2z"/>
			<path id="Fill-2" class="st2" d="M117.7,75.6c-0.8,5.5-5,5.5-9.1,5.5h-2.3l1.6-10.3c0.1-0.6,0.6-1.1,1.3-1.1h1
				c2.8,0,5.4,0,6.7,1.6C117.8,72.3,118,73.7,117.7,75.6z M115.9,61.2h-15.3c-1,0-1.9,0.8-2.1,1.8l-6.2,39.5
				c-0.1,0.7,0.4,1.4,1.1,1.5c0.1,0,0.1,0,0.2,0h7.3c1,0,1.9-0.8,2.1-1.8l1.7-10.7c0.2-1,1.1-1.8,2.1-1.8h4.9
				c10.1,0,15.9-4.9,17.5-14.6c0.7-4.3,0-7.6-2-9.9C124.9,62.6,121.1,61.2,115.9,61.2z"/>
			<path id="Fill-3" class="st2" d="M151.6,89.8c-0.6,4.1-4.1,7.2-8.3,7.1c-3.1,0.3-5.9-2-6.2-5.1c-0.1-0.7,0-1.4,0.2-2.1
				c0.6-4.1,4.1-7.1,8.2-7.1c1.8-0.1,3.6,0.7,4.9,2C151.5,86.1,151.9,88,151.6,89.8z M161.8,75.5h-7.3c-0.6,0-1.1,0.4-1.3,1l-0.3,2
				l-0.5-0.7c-1.6-2.3-5.1-3-8.7-3c-8.1,0-15,6.2-16.4,14.8c-0.8,4,0.2,8.1,2.7,11.3c2.2,2.7,5.4,3.8,9.3,3.8
				c3.8,0,7.5-1.5,10.2-4.2l-0.3,2c-0.1,0.7,0.4,1.4,1.1,1.5c0.1,0,0.1,0,0.2,0h6.6c1,0,1.9-0.8,2.1-1.8l4-25.3
				C163.1,76.1,162.6,75.5,161.8,75.5C161.8,75.5,161.8,75.5,161.8,75.5z"/>
			<path id="Fill-4" class="st1" d="M261,89.8c-0.6,4.1-4.1,7.2-8.3,7.1c-3.1,0.3-5.9-2-6.2-5.1c-0.1-0.7,0-1.4,0.2-2
				c0.6-4.1,4.1-7.1,8.2-7.1c1.9-0.1,3.6,0.6,4.9,2C260.9,86.1,261.4,88.1,261,89.8L261,89.8z M271.2,75.5h-7.3
				c-0.6,0-1.1,0.4-1.2,1l-0.3,2l-0.5-0.7c-1.6-2.3-5.1-3-8.7-3c-8.1,0-15,6.2-16.4,14.8c-0.8,4,0.2,8.1,2.7,11.3
				c2.2,2.7,5.4,3.8,9.2,3.8c3.8,0,7.5-1.5,10.2-4.2l-0.3,2c-0.1,0.7,0.4,1.4,1.1,1.5c0.1,0,0.1,0,0.2,0h6.6c1,0,1.9-0.8,2.1-1.8
				l4-25.3C272.5,76.1,272,75.5,271.2,75.5C271.2,75.5,271.2,75.5,271.2,75.5z"/>
			<g id="Group-10">
				<g>
					<path id="Fill-5" class="st2" d="M200.9,75.5h-7.4c-0.7,0-1.4,0.4-1.8,0.9l-10.2,15L177.3,77c-0.3-0.9-1.1-1.5-2-1.5H168
						c-0.7,0-1.3,0.6-1.3,1.3c0,0.1,0,0.3,0.1,0.4l8.1,24l-7.7,10.8c-0.4,0.6-0.3,1.4,0.3,1.8c0.2,0.1,0.4,0.2,0.7,0.2h7.4
						c0.7,0,1.4-0.3,1.8-0.9L202,77.5c0.4-0.6,0.3-1.4-0.3-1.8C201.4,75.6,201.2,75.5,200.9,75.5"/>
				</g>
				<g>
					<path id="Fill-7" class="st1" d="M279.9,62.3l-6.3,40.2c-0.1,0.7,0.3,1.4,1,1.5c0.1,0,0.1,0,0.2,0h6.3c1,0,1.9-0.8,2.1-1.8
						l6.2-39.5c0.1-0.7-0.4-1.3-1.1-1.5c-0.1,0-0.1,0-0.2,0h-7.1C280.5,61.3,280,61.7,279.9,62.3"/>
				</g>
				<g>
					<path id="Fill-8" class="st2" d="M39.6,111.2L41.6,98l0.1-0.7c0.1-0.6,0.4-1.2,0.9-1.6c0.5-0.4,1.1-0.6,1.7-0.6H46
						c2.5,0,5-0.3,7.5-0.9c2.2-0.6,4.4-1.5,6.3-2.9c1.9-1.4,3.5-3.1,4.7-5.2c1.4-2.5,2.4-5.1,2.9-7.9c0.5-2.3,0.6-4.7,0.3-7.1
						c-0.3-2-1.1-3.9-2.5-5.5c-0.9-0.9-1.9-1.7-3-2.3l0,0l0,0c0.4-2.3,0.4-4.6,0-6.8c-0.5-2-1.5-3.8-2.8-5.4c-3-3.4-8.3-5.1-16-5.1
						h-21c-0.7,0-1.4,0.3-1.9,0.7c-0.5,0.5-0.9,1.1-1,1.8l-8.8,55.8c-0.1,0.5,0.1,1,0.4,1.4c0.3,0.4,0.8,0.6,1.3,0.6h13.1v0.1
						l-0.9,5.7c-0.1,0.4,0.1,0.9,0.4,1.2c0.3,0.3,0.7,0.5,1.2,0.5h10.9c0.6,0,1.2-0.2,1.7-0.6c0.5-0.4,0.8-1,0.9-1.6L39.6,111.2"/>
				</g>
				<g>
					<path id="Fill-9" class="st2" d="M32.1,63.3c0.1-0.9,0.7-1.6,1.5-2c0.4-0.2,0.7-0.3,1.1-0.3h16.5c1.8,0,3.6,0.1,5.4,0.4
						c0.5,0.1,0.9,0.2,1.4,0.3c0.4,0.1,0.9,0.2,1.3,0.3l0.6,0.2c0.8,0.3,1.6,0.6,2.3,1c0.8-5.3,0-8.9-2.9-12.1
						c-3.1-3.6-8.8-5.1-16-5.1h-21c-1.5,0-2.7,1.1-3,2.6l-8.8,55.8c-0.2,1,0.5,1.9,1.5,2.1c0.1,0,0.2,0,0.3,0h13L32.1,63.3"/>
				</g>
			</g>
			<path id="Fill-11" class="st1" d="M62.2,63.3L62.2,63.3c-0.1,0.4-0.1,0.8-0.2,1.2c-2.8,14.3-12.3,19.2-24.4,19.2h-6.1
				c-1.5,0-2.8,1.1-3,2.6l-4,25.9c-0.1,0.9,0.5,1.7,1.3,1.8c0.1,0,0.2,0,0.2,0h10.9c1.3,0,2.4-1,2.6-2.2l0.1-0.6l2-13.2l0.1-0.7
				c0.2-1.3,1.3-2.2,2.6-2.2H46c10.6,0,18.9-4.3,21.3-16.9c1-5.2,0.5-9.6-2.2-12.7C64.3,64.6,63.3,63.8,62.2,63.3"/>
			<path id="Fill-12" class="st3" d="M59.3,62.1c-0.4-0.1-0.9-0.2-1.3-0.3c-0.5-0.1-0.9-0.2-1.4-0.3c-1.8-0.3-3.6-0.4-5.4-0.4H34.7
				c-0.4,0-0.8,0.1-1.1,0.3c-0.8,0.4-1.3,1.1-1.5,2l-3.5,22.3l-0.1,0.7c0.2-1.5,1.5-2.6,3-2.6h6.1c12.1,0,21.6-4.9,24.4-19.2
				c0.1-0.4,0.2-0.8,0.2-1.2c-0.7-0.4-1.5-0.7-2.3-1L59.3,62.1"/>
		</g>
	</g>
</g>
</svg>
